<svg width="52" height="51" viewBox="0 0 52 51" fill="none" xmlns="http://www.w3.org/2000/svg">
<path d="M20.3551 2.13209C20.6354 1.90482 20.7756 1.79118 20.9035 1.69524C23.9183 -0.56508 28.0817 -0.56508 31.0965 1.69524C31.2244 1.79118 31.3646 1.90482 31.6449 2.13209C31.7701 2.23355 31.8326 2.28427 31.8945 2.33256C33.3133 3.43968 35.0528 4.06706 36.8578 4.12267C36.9365 4.12509 37.0174 4.12609 37.179 4.12808C37.5412 4.13254 37.7223 4.13477 37.8826 4.14279C41.6582 4.33158 44.8475 6.98344 45.6908 10.6352C45.7266 10.7902 45.7602 10.9666 45.8276 11.3192C45.8576 11.4767 45.8726 11.5554 45.8887 11.6318C46.2574 13.3836 47.183 14.9722 48.5296 16.1645C48.5884 16.2165 48.6497 16.2688 48.7722 16.3733C49.0468 16.6074 49.184 16.7244 49.3016 16.8326C52.0715 19.3822 52.7944 23.4451 51.0716 26.7797C50.9985 26.9212 50.9099 27.0777 50.7327 27.3908C50.6536 27.5305 50.614 27.6004 50.5768 27.6691C49.7229 29.2459 49.4014 31.0524 49.6596 32.8235C49.6709 32.9008 49.6839 32.9799 49.71 33.138C49.7685 33.4922 49.7977 33.6693 49.8176 33.8271C50.2856 37.5445 48.2039 41.1173 44.7211 42.5743C44.5733 42.6362 44.4039 42.6997 44.0651 42.8266C43.9139 42.8833 43.8382 42.9116 43.7651 42.9406C42.0881 43.6046 40.6701 44.7837 39.719 46.3049C39.6775 46.3712 39.6362 46.4401 39.5536 46.5778C39.3686 46.8864 39.2761 47.0407 39.189 47.1742C37.1362 50.32 33.2239 51.731 29.6108 50.6288C29.4575 50.582 29.2865 50.5227 28.9446 50.4042C28.792 50.3512 28.7157 50.3248 28.6409 50.3004C26.9256 49.7409 25.0744 49.7409 23.3591 50.3004C23.2843 50.3248 23.208 50.3512 23.0554 50.4042C22.7135 50.5227 22.5425 50.582 22.3892 50.6288C18.7761 51.731 14.8638 50.32 12.811 47.1742C12.7239 47.0407 12.6314 46.8864 12.4464 46.5778C12.3638 46.4401 12.3225 46.3712 12.281 46.3049C11.3299 44.7837 9.91186 43.6046 8.23491 42.9406C8.16176 42.9116 8.08614 42.8833 7.93491 42.8266C7.59612 42.6997 7.42672 42.6362 7.2789 42.5743C3.79608 41.1173 1.71442 37.5445 2.18244 33.8271C2.2023 33.6693 2.23153 33.4922 2.28999 33.138C2.31608 32.9799 2.32913 32.9008 2.34039 32.8235C2.59857 31.0524 2.27712 29.2459 1.42321 27.6691C1.38597 27.6004 1.34642 27.5305 1.26732 27.3908C1.09013 27.0777 1.00154 26.9212 0.928414 26.7797C-0.794427 23.4451 -0.0714749 19.3822 2.69839 16.8326C2.81596 16.7244 2.95323 16.6074 3.22778 16.3733C3.35034 16.2688 3.41162 16.2165 3.47036 16.1645C4.817 14.9722 5.74257 13.3836 6.11127 11.6318C6.12735 11.5554 6.14238 11.4767 6.17243 11.3192C6.23976 10.9666 6.27342 10.7902 6.30921 10.6352C7.15247 6.98344 10.3418 4.33158 14.1174 4.14279C14.2777 4.13477 14.4588 4.13254 14.821 4.12808C14.9826 4.12609 15.0635 4.12509 15.1422 4.12267C16.9472 4.06706 18.6867 3.43968 20.1055 2.33256C20.1674 2.28427 20.2299 2.23355 20.3551 2.13209Z" fill="url(#paint0_linear_293_79939)"/>
<defs>
<linearGradient id="paint0_linear_293_79939" x1="45.0264" y1="4.90384" x2="13.6454" y2="48.0687" gradientUnits="userSpaceOnUse">
<stop stop-color="#78E1FF"/>
<stop offset="1" stop-color="#2AE380"/>
</linearGradient>
</defs>
</svg>
